<svg xmlns="http://www.w3.org/2000/svg" viewBox="686 505 675 428"><rect x="686" y="505" width="675" height="428" fill="#b94700"/><path d="M905.25 910.22 C913.11 906.02 917.01 899.36 916.98 890.20 C916.95 882.86 914.44 877.39 908.95 872.69 C904.06 868.50 899.74 867.01 892.50 867.01 C885.26 867.01 880.94 868.50 876.05 872.69 C867.86 879.70 865.69 890.50 870.43 900.69 C875.94 912.50 892.49 917.03 905.25 910.22 Z M980.50 911.02 C991.05 906.37 996.25 894.34 992.78 882.62 C991.10 876.93 983.57 869.70 977.57 868.02 C966.69 864.97 954.05 868.79 948.81 876.70 C945.44 881.80 944.83 884.00 944.87 890.98 C944.95 908.39 963.19 918.65 980.50 911.02 Z M1238.00 911.78 C1245.63 909.42 1246.00 908.80 1246.00 898.38 L1246.00 889.00L1241.00 889.00 L1236.00 889.00L1236.00 895.94 L1236.00 902.88L1231.59 903.54 C1223.76 904.71 1218.84 902.47 1215.62 896.24 C1213.46 892.05 1213.58 887.20 1215.96 883.30 C1220.22 876.31 1227.71 874.44 1235.50 878.42 L1240.49 880.98L1243.88 877.59 L1247.26 874.20L1243.30 871.58 C1229.03 862.14 1208.10 868.22 1203.99 883.00 C1198.34 903.28 1216.31 918.48 1238.00 911.78 Z M812.00 906.50 L812.00 900.00L816.38 900.00 C820.68 900.00 820.85 900.13 825.00 906.50 L829.23 913.00L835.18 913.00 C839.65 913.00 840.94 912.69 840.39 911.75 C840.00 911.06 837.87 907.89 835.66 904.71 L831.65 898.91L834.83 896.01 C843.12 888.44 841.53 875.21 831.72 870.16 C827.72 868.10 825.65 867.80 814.34 867.66 L801.50 867.50L801.23 890.25 L800.96 913.00L806.48 913.00 L812.00 913.00L812.00 906.50 Z M1035.00 905.00 L1035.00 897.00L1043.92 897.00 C1055.33 897.00 1056.00 896.72 1056.00 891.97 C1056.00 888.62 1055.67 888.09 1053.25 887.59 C1051.74 887.28 1046.99 887.13 1042.71 887.26 L1034.91 887.50L1035.21 882.00 L1035.50 876.50L1046.75 876.50 L1058.00 876.50L1058.00 871.75 L1058.00 867.00L1041.00 867.00 L1024.00 867.00L1024.00 890.00 L1024.00 913.00L1029.50 913.00 L1035.00 913.00L1035.00 905.00 Z M1098.50 890.00 L1098.50 867.50L1093.38 867.20 C1089.83 867.00 1088.14 867.30 1087.88 868.20 C1087.67 868.92 1087.64 879.31 1087.81 891.30 L1088.11 913.10L1093.31 912.80 L1098.50 912.50L1098.50 890.00 Z M1142.22 899.85 L1142.50 886.69L1153.30 899.85 L1164.10 913.00L1168.57 913.00 L1173.04 913.00L1172.77 890.28 L1172.50 867.56L1167.50 867.53 L1162.50 867.50L1162.00 880.40 L1161.50 893.31L1151.21 880.66 C1141.04 868.17 1139.33 866.85 1134.00 867.29 L1131.50 867.50L1131.23 890.25 L1130.96 913.00L1136.45 913.00 L1141.94 913.00L1142.22 899.85 Z M885.19 901.97 C876.43 896.64 877.15 882.53 886.41 878.04 C891.57 875.54 893.35 875.52 898.58 877.90 C911.35 883.70 906.62 903.99 892.50 903.99 C890.25 903.99 887.05 903.11 885.19 901.97 Z M962.46 902.14 C958.04 899.45 956.00 895.76 956.00 890.49 C956.00 885.12 957.90 880.95 961.38 878.67 C973.30 870.86 987.32 883.44 981.08 896.34 C977.60 903.53 969.08 906.18 962.46 902.14 Z M812.44 891.11 C812.20 890.87 812.00 887.59 812.00 883.83 L812.00 877.00L818.50 877.00 C825.94 877.00 829.00 878.99 829.00 883.81 C829.00 888.79 826.91 890.38 819.55 891.00 C815.88 891.30 812.69 891.35 812.44 891.11 Z M898.97 843.58 C901.42 842.68 905.36 840.81 907.72 839.43 L912.00 836.92L912.00 820.96 L912.00 805.00L904.50 805.00 L897.00 805.00L897.00 816.55 L897.00 828.10L893.25 829.71 C891.18 830.60 886.55 831.36 882.93 831.41 C877.48 831.48 875.35 830.98 870.43 828.47 C851.35 818.73 853.76 789.60 874.15 783.55 C883.60 780.74 890.58 781.83 898.86 787.41 L903.82 790.75L908.45 786.05 C911.25 783.21 912.85 780.79 912.50 779.93 C911.57 777.66 903.76 772.18 898.92 770.42 C871.65 760.49 843.31 776.70 841.29 803.37 C839.78 823.31 850.70 839.06 869.89 844.61 C876.00 846.38 893.01 845.78 898.97 843.58 Z M1129.34 844.50 C1139.52 841.85 1149.68 833.69 1154.24 824.50 C1158.87 815.18 1159.05 800.16 1154.65 790.54 C1151.16 782.93 1144.31 775.96 1136.31 771.90 C1129.74 768.57 1129.35 768.50 1117.05 768.50 C1105.51 768.50 1104.04 768.72 1098.75 771.20 C1090.70 774.97 1082.90 782.65 1079.37 790.28 C1076.79 795.88 1076.50 797.55 1076.50 807.00 C1076.50 816.22 1076.82 818.18 1079.10 823.05 C1083.86 833.19 1092.40 840.74 1102.91 844.10 C1109.86 846.33 1121.64 846.50 1129.34 844.50 Z M760.50 843.08 C762.86 842.33 766.41 839.83 769.14 837.02 C772.97 833.07 773.90 831.37 774.47 827.25 C775.48 819.89 773.62 814.36 768.37 809.11 L763.95 804.68L765.93 802.58 C772.86 795.19 772.55 783.61 765.20 775.75 C759.91 770.09 754.55 769.08 729.30 768.96 L706.50 768.85L706.24 806.99 L705.98 845.12L731.24 844.75 C748.09 844.50 757.83 843.94 760.50 843.08 Z M816.00 807.00 L816.00 769.00L808.00 769.00 L800.00 769.00L800.00 807.00 L800.00 845.00L808.00 845.00 L816.00 845.00L816.00 807.00 Z M999.00 828.98 L999.00 812.95L1016.75 813.23 L1034.50 813.50L1034.78 829.25 L1035.05 845.00L1043.03 845.00 L1051.00 845.00L1051.00 807.08 L1051.00 769.15L1043.00 768.83 L1035.00 768.50L1035.00 783.75 L1035.00 799.00L1017.00 799.00 L999.00 799.00L999.00 783.75 L999.00 768.50L991.00 768.50 L983.00 768.50L983.00 806.75 L983.00 845.00L991.00 845.00 L999.00 845.00L999.00 828.98 Z M1199.00 834.50 L1199.00 824.00L1208.25 824.03 L1217.50 824.06L1224.50 834.49 L1231.50 844.93L1240.25 844.96 C1245.06 844.98 1249.00 844.73 1249.00 844.40 C1249.00 844.06 1245.40 838.68 1241.00 832.44 C1236.60 826.20 1233.00 820.92 1233.00 820.71 C1233.00 820.51 1234.98 818.91 1237.41 817.17 C1243.93 812.49 1247.01 805.70 1246.98 796.05 C1246.95 786.91 1244.98 782.01 1239.29 776.87 C1231.77 770.10 1226.78 769.00 1203.46 769.00 L1183.00 769.00L1183.00 807.00 L1183.00 845.00L1191.00 845.00 L1199.00 845.00L1199.00 834.50 Z M1289.00 822.00 C1289.00 809.35 1289.35 799.00 1289.77 799.00 C1290.20 799.00 1299.01 809.35 1309.35 822.00 L1328.15 845.00L1334.51 845.00 C1340.33 845.00 1340.89 844.81 1341.18 842.75 C1341.36 841.51 1341.38 824.30 1341.23 804.50 L1340.96 768.50L1332.98 768.83 L1325.00 769.15L1325.00 792.64 L1325.00 816.13L1305.73 792.46 L1286.46 768.80L1279.73 768.65 L1273.00 768.50L1273.00 806.75 L1273.00 845.00L1281.00 845.00 L1289.00 845.00L1289.00 822.00 Z M723.00 822.50 L723.00 812.81L737.43 813.16 C750.23 813.46 752.18 813.74 754.68 815.61 C757.09 817.41 757.50 818.42 757.50 822.50 C757.50 826.58 757.09 827.59 754.68 829.39 C752.18 831.26 750.23 831.54 737.43 831.84 L723.00 832.19L723.00 822.50 Z M1109.82 830.61 C1103.70 828.96 1098.70 825.04 1095.30 819.24 C1092.96 815.26 1092.55 813.42 1092.54 807.03 C1092.52 796.44 1096.64 789.31 1105.38 784.82 C1122.12 776.21 1141.46 788.10 1141.38 806.96 C1141.33 819.07 1134.03 828.54 1122.90 830.93 C1116.82 832.23 1115.76 832.21 1109.82 830.61 Z M1199.00 796.63 L1199.00 783.00L1209.53 783.00 C1220.72 783.00 1225.07 784.12 1228.40 787.85 C1231.04 790.82 1231.68 798.79 1229.59 802.82 C1226.99 807.85 1223.00 809.30 1210.25 809.80 L1199.00 810.25L1199.00 796.63 Z M723.00 791.00 L723.00 782.00L734.75 782.00 C743.95 782.00 747.25 782.38 749.95 783.75 C756.41 787.03 755.90 794.80 749.00 798.25 C746.29 799.60 742.96 800.00 734.25 800.00 L723.00 800.00L723.00 791.00 Z M990.00 675.03 L1029.50 636.09L1086.00 636.03 C1149.55 635.96 1150.99 635.83 1164.50 629.02 C1181.37 620.52 1192.03 606.57 1195.59 588.34 C1199.21 569.78 1193.11 550.81 1179.07 537.00 C1175.44 533.42 1170.00 529.18 1166.98 527.56 L1161.50 524.62L1166.40 530.06 C1169.10 533.05 1172.70 538.42 1174.40 542.00 C1177.29 548.05 1177.50 549.26 1177.50 559.52 C1177.50 570.05 1177.35 570.84 1174.06 577.52 C1170.00 585.77 1162.46 593.72 1155.18 597.41 C1144.19 602.98 1143.92 603.00 1075.04 603.05 L1011.50 603.10L955.51 658.55 L899.52 714.00L925.01 713.98 L950.50 713.97L990.00 675.03 Z M1022.00 707.00 L1022.00 700.00L1014.50 700.00 L1007.00 700.00L1007.00 707.00 L1007.00 714.00L1014.50 714.00 L1022.00 714.00L1022.00 707.00 Z M1041.00 707.00 L1041.00 700.00L1034.00 700.00 L1027.00 700.00L1027.00 707.00 L1027.00 714.00L1034.00 714.00 L1041.00 714.00L1041.00 707.00 Z M1119.35 685.52 L1090.50 657.05L1072.00 656.92 C1061.83 656.86 1051.59 656.71 1049.25 656.60 C1046.91 656.48 1045.00 656.64 1044.99 656.95 C1044.99 657.25 1057.93 670.19 1073.74 685.71 L1102.50 713.92L1125.35 713.96 L1148.20 714.00L1119.35 685.52 Z M1021.79 687.25 L1022.09 680.00L1014.54 680.00 L1007.00 680.00L1007.00 686.83 C1007.00 690.59 1007.32 693.99 1007.71 694.37 C1008.10 694.76 1011.36 694.95 1014.96 694.79 L1021.50 694.50L1021.79 687.25 Z M1041.00 687.50 L1041.00 680.00L1034.00 680.00 L1027.00 680.00L1027.00 687.50 L1027.00 695.00L1034.00 695.00 L1041.00 695.00L1041.00 687.50 Z M965.57 619.50 L982.50 603.00L945.96 603.00 C916.80 603.00 908.26 602.70 903.69 601.51 C890.09 597.96 880.13 590.08 874.27 578.22 C870.60 570.80 870.50 570.32 870.50 559.55 C870.50 549.26 870.71 548.05 873.60 542.00 C875.30 538.42 878.90 533.05 881.60 530.06 L886.50 524.62L881.00 527.53 C872.74 531.91 862.00 543.19 857.62 552.10 C853.74 559.98 851.03 570.62 851.03 578.00 C851.03 598.88 863.99 619.47 883.06 628.88 C895.30 634.93 900.88 635.83 926.57 635.92 L948.64 636.00L965.57 619.50 Z" fill="#ffffff" fill-rule="evenodd"/></svg>